<mxfile host="app.diagrams.net" modified="2022-03-22T20:06:11.400Z" agent="5.0 (Windows NT 10.0; Win64; x64) AppleWebKit/537.36 (KHTML, like Gecko) Chrome/97.0.4692.71 Safari/537.36" etag="MFFus9VkHWR3OAti2QVP" version="17.1.3" type="github">
  <diagram id="Xf6iouCa1GwI01AaItZm" name="Page-1">
    <mxGraphModel dx="654" dy="370" grid="1" gridSize="10" guides="1" tooltips="1" connect="1" arrows="1" fold="1" page="1" pageScale="1" pageWidth="827" pageHeight="1169" math="0" shadow="0">
      <root>
        <mxCell id="0" />
        <mxCell id="1" parent="0" />
        <mxCell id="zHzlAYMzsIVSmLrJZg-d-101" value="" style="html=1;verticalLabelPosition=bottom;labelBackgroundColor=#ffffff;verticalAlign=top;shadow=0;dashed=0;strokeWidth=1;shape=mxgraph.ios7.misc.iphone;strokeColor=#c0c0c0;fontFamily=Verdana;" vertex="1" parent="1">
          <mxGeometry x="190" y="790" width="200" height="400" as="geometry" />
        </mxCell>
        <mxCell id="zHzlAYMzsIVSmLrJZg-d-106" value="" style="html=1;strokeWidth=1;shadow=0;dashed=0;shape=mxgraph.ios7ui.appBar;fillColor=#ffffff;gradientColor=none;sketch=0;hachureGap=4;pointerEvents=0;fontFamily=Architects Daughter;fontSource=https%3A%2F%2Ffonts.googleapis.com%2Fcss%3Ffamily%3DArchitects%2BDaughter;fontSize=20;" vertex="1" parent="1">
          <mxGeometry x="203" y="851" width="174" height="15" as="geometry" />
        </mxCell>
        <mxCell id="zHzlAYMzsIVSmLrJZg-d-107" value="CARRIER" style="shape=rect;align=left;fontSize=8;spacingLeft=24;fontSize=4;fontColor=#aaaaaa;strokeColor=none;fillColor=none;spacingTop=4;sketch=0;hachureGap=4;pointerEvents=0;fontFamily=Architects Daughter;fontSource=https%3A%2F%2Ffonts.googleapis.com%2Fcss%3Ffamily%3DArchitects%2BDaughter;" vertex="1" parent="zHzlAYMzsIVSmLrJZg-d-106">
          <mxGeometry y="0.5" width="50" height="13" relative="1" as="geometry">
            <mxPoint y="-6.5" as="offset" />
          </mxGeometry>
        </mxCell>
        <mxCell id="zHzlAYMzsIVSmLrJZg-d-108" value="11:55PM" style="shape=rect;fontSize=8;fontColor=#aaaaaa;strokeColor=none;fillColor=none;spacingTop=4;sketch=0;hachureGap=4;pointerEvents=0;fontFamily=Architects Daughter;fontSource=https%3A%2F%2Ffonts.googleapis.com%2Fcss%3Ffamily%3DArchitects%2BDaughter;" vertex="1" parent="zHzlAYMzsIVSmLrJZg-d-106">
          <mxGeometry x="0.5" y="0.5" width="50" height="13" relative="1" as="geometry">
            <mxPoint x="-30" y="-6.5" as="offset" />
          </mxGeometry>
        </mxCell>
        <mxCell id="zHzlAYMzsIVSmLrJZg-d-109" value="98%" style="shape=rect;align=right;fontSize=8;spacingRight=19;fontSize=6;fontColor=#aaaaaa;strokeColor=none;fillColor=none;spacingTop=4;sketch=0;hachureGap=4;pointerEvents=0;fontFamily=Architects Daughter;fontSource=https%3A%2F%2Ffonts.googleapis.com%2Fcss%3Ffamily%3DArchitects%2BDaughter;" vertex="1" parent="zHzlAYMzsIVSmLrJZg-d-106">
          <mxGeometry x="1" y="0.5" width="45" height="13" relative="1" as="geometry">
            <mxPoint x="-45" y="-6.5" as="offset" />
          </mxGeometry>
        </mxCell>
        <mxCell id="zHzlAYMzsIVSmLrJZg-d-155" value="" style="shape=rect;strokeColor=none;fillColor=#ffffff;gradientColor=none;shadow=0;fontFamily=Verdana;rounded=1;" vertex="1" parent="1">
          <mxGeometry x="208" y="930" width="164" height="60" as="geometry" />
        </mxCell>
        <mxCell id="zHzlAYMzsIVSmLrJZg-d-156" value="Outerwears" style="shape=rect;strokeColor=#E0E0E0;fontSize=10;fontColor=#000000;resizeWidth=1;align=left;spacingTop=2;spacingLeft=5;fontFamily=Verdana;rounded=1;sketch=0;strokeWidth=1;" vertex="1" parent="zHzlAYMzsIVSmLrJZg-d-155">
          <mxGeometry width="164" height="20" relative="1" as="geometry" />
        </mxCell>
        <mxCell id="zHzlAYMzsIVSmLrJZg-d-157" value="3" style="shape=mxgraph.ios7.misc.right;strokeColor=#666666;labelPosition=left;verticalLabelPosition=middle;align=right;verticalAlign=middle;fontSize=10;spacingRight=4;fontColor=#999999;fontFamily=Verdana;rotation=0;direction=east;" vertex="1" parent="zHzlAYMzsIVSmLrJZg-d-156">
          <mxGeometry x="1" y="0.5" width="5" height="10" relative="1" as="geometry">
            <mxPoint x="-15" y="-5" as="offset" />
          </mxGeometry>
        </mxCell>
        <mxCell id="zHzlAYMzsIVSmLrJZg-d-158" value="Top" style="shape=rect;strokeColor=#E0E0E0;fontSize=10;fontColor=#000000;resizeWidth=1;align=left;spacingTop=2;spacingLeft=5;fontFamily=Verdana;rounded=1;" vertex="1" parent="zHzlAYMzsIVSmLrJZg-d-155">
          <mxGeometry width="164" height="20" relative="1" as="geometry">
            <mxPoint y="20" as="offset" />
          </mxGeometry>
        </mxCell>
        <mxCell id="zHzlAYMzsIVSmLrJZg-d-159" value="5" style="shape=mxgraph.ios7.misc.right;strokeColor=#666666;labelPosition=left;verticalLabelPosition=middle;align=right;verticalAlign=middle;fontSize=10;spacingRight=4;fontColor=#999999;fontFamily=Verdana;" vertex="1" parent="zHzlAYMzsIVSmLrJZg-d-158">
          <mxGeometry x="1" y="0.5" width="5" height="10" relative="1" as="geometry">
            <mxPoint x="-15" y="-5" as="offset" />
          </mxGeometry>
        </mxCell>
        <mxCell id="zHzlAYMzsIVSmLrJZg-d-160" value="Bottom" style="shape=rect;strokeColor=#E0E0E0;fontSize=10;fontColor=#000000;resizeWidth=1;align=left;spacingTop=2;spacingLeft=5;fontFamily=Verdana;rounded=1;shadow=0;sketch=0;" vertex="1" parent="zHzlAYMzsIVSmLrJZg-d-155">
          <mxGeometry width="164" height="20" relative="1" as="geometry">
            <mxPoint y="40" as="offset" />
          </mxGeometry>
        </mxCell>
        <mxCell id="zHzlAYMzsIVSmLrJZg-d-161" value="5" style="shape=mxgraph.ios7.misc.right;strokeColor=#666666;labelPosition=left;verticalLabelPosition=middle;align=right;verticalAlign=middle;fontSize=10;spacingRight=4;fontColor=#999999;fontFamily=Verdana;" vertex="1" parent="zHzlAYMzsIVSmLrJZg-d-160">
          <mxGeometry x="1" y="0.5" width="5" height="10" relative="1" as="geometry">
            <mxPoint x="-15" y="-5" as="offset" />
          </mxGeometry>
        </mxCell>
        <mxCell id="zHzlAYMzsIVSmLrJZg-d-191" value="&lt;b&gt;My Wardrobe&lt;/b&gt;" style="text;html=1;strokeColor=none;fillColor=none;align=center;verticalAlign=middle;whiteSpace=wrap;rounded=0;shadow=0;sketch=0;fontFamily=Verdana;" vertex="1" parent="1">
          <mxGeometry x="203" y="866" width="97" height="30" as="geometry" />
        </mxCell>
        <mxCell id="zHzlAYMzsIVSmLrJZg-d-193" value="" style="html=1;verticalLabelPosition=bottom;align=center;labelBackgroundColor=#ffffff;verticalAlign=top;strokeWidth=2;strokeColor=#0080F0;shadow=0;dashed=0;shape=mxgraph.ios7.icons.add;rounded=1;sketch=0;fontFamily=Verdana;fontSize=8;gradientColor=none;" vertex="1" parent="1">
          <mxGeometry x="275" y="1090" width="30" height="30" as="geometry" />
        </mxCell>
        <mxCell id="zHzlAYMzsIVSmLrJZg-d-197" value="" style="shape=rect;fillColor=#F6F6F6;strokeColor=none;rounded=1;shadow=0;sketch=0;fontFamily=Verdana;fontSize=8;" vertex="1" parent="1">
          <mxGeometry x="211.5" y="896" width="157" height="10" as="geometry" />
        </mxCell>
        <mxCell id="zHzlAYMzsIVSmLrJZg-d-199" value="Search" style="shape=mxgraph.ios7.icons.looking_glass;strokeColor=#878789;fillColor=none;fontColor=#878789;labelPosition=right;verticalLabelPosition=middle;align=left;verticalAlign=middle;fontSize=6;fontStyle=0;spacingTop=2;sketch=0;rounded=1;shadow=0;fontFamily=Verdana;" vertex="1" parent="zHzlAYMzsIVSmLrJZg-d-197">
          <mxGeometry x="0.5" y="0.5" width="6" height="6" relative="1" as="geometry">
            <mxPoint x="-17" y="-3" as="offset" />
          </mxGeometry>
        </mxCell>
      </root>
    </mxGraphModel>
  </diagram>
</mxfile>
